<svg xmlns="http://www.w3.org/2000/svg" width="1040" height="560" viewBox="0 0 1040 560">
<rect width="100%" height="100%" fill="#fcfbf7"/>
<text x="52" y="32" font-family="Helvetica, Arial, sans-serif" font-size="22" font-weight="700" fill="#1f2937">Phase2 Runtime Focus Metrics</text>
<text x="52" y="52" font-family="Helvetica, Arial, sans-serif" font-size="12" fill="#4b5563">Derived from codesign_single_20us_20260322 runtime ablation summary</text>
<text x="52" y="70" font-family="Helvetica, Arial, sans-serif" font-size="12" fill="#6b7280">Hotspot threshold: 70.0C via effective_config.thermal.hotspot_threshold_c (10 cases)</text>
<line x1="96" y1="474.00" x2="1004" y2="474.00" stroke="#d1d5db" stroke-width="1"/>
<text x="86" y="478.00" text-anchor="end" font-family="Helvetica, Arial, sans-serif" font-size="11" fill="#6b7280">0.00</text>
<line x1="96" y1="394.40" x2="1004" y2="394.40" stroke="#d1d5db" stroke-width="1"/>
<text x="86" y="398.40" text-anchor="end" font-family="Helvetica, Arial, sans-serif" font-size="11" fill="#6b7280">0.30</text>
<line x1="96" y1="314.80" x2="1004" y2="314.80" stroke="#d1d5db" stroke-width="1"/>
<text x="86" y="318.80" text-anchor="end" font-family="Helvetica, Arial, sans-serif" font-size="11" fill="#6b7280">0.60</text>
<line x1="96" y1="235.20" x2="1004" y2="235.20" stroke="#d1d5db" stroke-width="1"/>
<text x="86" y="239.20" text-anchor="end" font-family="Helvetica, Arial, sans-serif" font-size="11" fill="#6b7280">0.90</text>
<line x1="96" y1="155.60" x2="1004" y2="155.60" stroke="#d1d5db" stroke-width="1"/>
<text x="86" y="159.60" text-anchor="end" font-family="Helvetica, Arial, sans-serif" font-size="11" fill="#6b7280">1.20</text>
<line x1="96" y1="76.00" x2="1004" y2="76.00" stroke="#d1d5db" stroke-width="1"/>
<text x="86" y="80.00" text-anchor="end" font-family="Helvetica, Arial, sans-serif" font-size="11" fill="#6b7280">1.50</text>
<text x="209.50" y="522" text-anchor="middle" font-family="Helvetica, Arial, sans-serif" font-size="12" fill="#374151">Same-Home Ratio</text>
<rect x="120.00" y="341.33" width="42.00" height="132.67" rx="4" fill="#264653"/>
<text x="141.00" y="335.33" text-anchor="middle" font-family="Helvetica, Arial, sans-serif" font-size="10" fill="#111827">0.500</text>
<rect x="174.00" y="233.54" width="42.00" height="240.46" rx="4" fill="#2A9D8F"/>
<text x="195.00" y="227.54" text-anchor="middle" font-family="Helvetica, Arial, sans-serif" font-size="10" fill="#111827">0.906</text>
<rect x="228.00" y="275.00" width="42.00" height="199.00" rx="4" fill="#E76F51"/>
<text x="249.00" y="269.00" text-anchor="middle" font-family="Helvetica, Arial, sans-serif" font-size="10" fill="#111827">0.750</text>
<text x="436.50" y="522" text-anchor="middle" font-family="Helvetica, Arial, sans-serif" font-size="12" fill="#374151">Vertical Target Ratio</text>
<rect x="347.00" y="474.00" width="42.00" height="0.00" rx="4" fill="#264653"/>
<text x="368.00" y="468.00" text-anchor="middle" font-family="Helvetica, Arial, sans-serif" font-size="10" fill="#111827">0.000</text>
<rect x="401.00" y="366.21" width="42.00" height="107.79" rx="4" fill="#2A9D8F"/>
<text x="422.00" y="360.21" text-anchor="middle" font-family="Helvetica, Arial, sans-serif" font-size="10" fill="#111827">0.406</text>
<rect x="455.00" y="407.67" width="42.00" height="66.33" rx="4" fill="#E76F51"/>
<text x="476.00" y="401.67" text-anchor="middle" font-family="Helvetica, Arial, sans-serif" font-size="10" fill="#111827">0.250</text>
<text x="663.50" y="522" text-anchor="middle" font-family="Helvetica, Arial, sans-serif" font-size="12" fill="#374151">Vertical Link Pressure</text>
<rect x="574.00" y="424.06" width="42.00" height="49.94" rx="4" fill="#264653"/>
<text x="595.00" y="418.06" text-anchor="middle" font-family="Helvetica, Arial, sans-serif" font-size="10" fill="#111827">0.188</text>
<rect x="628.00" y="359.39" width="42.00" height="114.61" rx="4" fill="#2A9D8F"/>
<text x="649.00" y="353.39" text-anchor="middle" font-family="Helvetica, Arial, sans-serif" font-size="10" fill="#111827">0.432</text>
<rect x="682.00" y="384.26" width="42.00" height="89.74" rx="4" fill="#E76F51"/>
<text x="703.00" y="378.26" text-anchor="middle" font-family="Helvetica, Arial, sans-serif" font-size="10" fill="#111827">0.338</text>
<text x="890.50" y="522" text-anchor="middle" font-family="Helvetica, Arial, sans-serif" font-size="12" fill="#374151">Thermal Hotspot Score</text>
<rect x="801.00" y="148.10" width="42.00" height="325.90" rx="4" fill="#264653"/>
<text x="822.00" y="142.10" text-anchor="middle" font-family="Helvetica, Arial, sans-serif" font-size="10" fill="#111827">1.228</text>
<rect x="855.00" y="148.42" width="42.00" height="325.58" rx="4" fill="#2A9D8F"/>
<text x="876.00" y="142.42" text-anchor="middle" font-family="Helvetica, Arial, sans-serif" font-size="10" fill="#111827">1.227</text>
<rect x="909.00" y="148.42" width="42.00" height="325.58" rx="4" fill="#E76F51"/>
<text x="930.00" y="142.42" text-anchor="middle" font-family="Helvetica, Arial, sans-serif" font-size="10" fill="#111827">1.227</text>
<rect x="740" y="90" width="14" height="14" rx="3" fill="#264653"/>
<text x="762" y="101" font-family="Helvetica, Arial, sans-serif" font-size="12" fill="#374151">Full 3D</text>
<rect x="740" y="112" width="14" height="14" rx="3" fill="#2A9D8F"/>
<text x="762" y="123" font-family="Helvetica, Arial, sans-serif" font-size="12" fill="#374151">Full 3D + 3D-Aware Mapping</text>
<rect x="740" y="134" width="14" height="14" rx="3" fill="#E76F51"/>
<text x="762" y="145" font-family="Helvetica, Arial, sans-serif" font-size="12" fill="#374151">Full 3D + Thermal Guard</text>
</svg>
